<?xml version="1.0"?>
<svg version="1.1" xmlns="http://www.w3.org/2000/svg" width="400px" height="200px" style=""><path fill="#" d="M52.4609375,133.4375q0.234375-6.328125,0.41015625-12.96875t0.33203125-13.10546875t0.234375-12.55859375t0.078125-11.3671875q0.078125-1.0546875,1.8359375-1.6796875t4.19921875-0.91796875t5.15625-0.37109375t4.82421875-0.078125q0.46875,0,1.953125-0.0390625l0.7421875,0q1.1328125,0,2.3828125,0.078125q1.640625,0.1171875,2.87109375,0.5078125t1.23046875,1.1328125q0,0.546875-0.4296875,0.87890625t-0.99609375,0.48828125t-1.171875,0.1953125t-0.83984375,0.0390625q-3.671875,0-7.265625-0.1171875q-0.9765625-0.0390625-1.9921875-0.0390625q-2.65625,0-5.390625,0.234375q0.15625,0.46875,0.25390625,2.83203125t0.09765625,5.33203125t-0.0390625,5.80078125t0,4.35546875l0,10.15625q1.2109375-0.078125,2.3828125-0.078125l2.34375,0l1.5625-0.078125q0.78125-0.0390625,1.640625-0.0390625q0.8984375,0,1.8359375,0.0390625q1.875,0.078125,3.41796875,0.44921875t1.54296875,1.30859375q0,0.703125-0.5859375,1.03515625t-1.30859375,0.48828125t-1.3671875,0.15625l-0.72265625,0q-2.2265625,0-4.62890625-0.15625t-4.47265625-0.15625q-0.390625,0.15625-0.83984375,0.1171875t-0.80078125-0.0390625q0,5.859375-0.1171875,11.66015625t-0.2734375,11.54296875q0,1.1328125-1.42578125,1.484375t-2.71484375,0.3515625q-1.4453125,0-2.28515625-0.3515625t-1.19140625-1.15234375t-0.4296875-2.12890625q-0.0390625-0.7421875-0.078125-1.640625q0-0.7421875,0.0390625-1.6015625z M84.323046875,125.4296875q0-2.65625,0.72265625-5.1171875t2.16796875-4.39453125t3.61328125-3.0859375t5.01953125-1.15234375q1.7578125,0,3.88671875,0.52734375t4.00390625,1.5625t3.125,2.63671875t1.25,3.671875q0,0.9765625-0.33203125,1.484375t-1.34765625,0.5078125l-0.4296875-0.078125q1.1328125,3.046875,1.953125,6.25t1.6015625,6.40625q0.3125,0.625,0.46875,1.11328125t0.15625,0.95703125q0,0.625-0.3515625,1.03515625t-0.91796875,0.60546875t-1.171875,0.2734375t-1.07421875,0.078125q-1.6796875,0-2.51953125-0.5859375t-1.2109375-1.6015625t-0.44921875-2.28515625t-0.3125-2.55859375q-0.46875,1.5234375-1.23046875,2.96875t-1.796875,2.59765625t-2.44140625,1.8359375t-3.1640625,0.68359375q-2.578125,0-4.3359375-1.484375t-2.83203125-3.65234375t-1.5625-4.62890625t-0.48828125-4.5703125z M89.869921875,124.8828125q0,1.4453125,0.1953125,3.046875t0.64453125,3.1640625t1.15234375,2.94921875t1.7578125,2.44140625q1.9140625-2.0703125,2.83203125-5.0390625t1.640625-5.72265625t1.640625-4.7265625t2.83203125-1.97265625q1.2109375,0,2.03125,0.4296875q-0.390625-0.9765625-1.2890625-1.89453125t-2.01171875-1.6796875t-2.3046875-1.25t-2.24609375-0.48828125q-0.3125,0-0.72265625,0.09765625t-0.64453125,0.01953125q-1.6015625,0.46875-2.63671875,1.62109375t-1.6796875,2.71484375t-0.91796875,3.203125t-0.2734375,3.0859375z M118.17734375,114.0625q0-2.734375,0.25390625-7.109375t0.60546875-9.0234375t0.87890625-8.80859375t1.15234375-6.38671875q0.234375-0.9765625,1.11328125-1.171875t1.77734375-0.1953125q1.2109375,0,2.08984375,0.4296875t0.87890625,1.875q0,7.109375-0.87890625,14.23828125t-0.95703125,14.23828125q1.2109375-1.8359375,3.125-2.75390625t4.0625-0.91796875q2.96875,0,5.1171875,1.2109375t3.4765625,3.125t1.97265625,4.43359375t0.64453125,5.13671875q0,1.4453125-0.29296875,3.61328125t-0.87890625,4.5703125t-1.484375,4.765625t-2.12890625,4.23828125t-2.83203125,3.02734375t-3.515625,1.15234375q-0.390625,0-1.03515625-0.1171875t-1.2890625-0.3515625t-1.07421875-0.60546875t-0.4296875-0.91796875q0-0.625,0.76171875-0.87890625t1.23046875-0.25390625q1.7578125-0.78125,3.125-3.26171875t2.28515625-5.44921875t1.38671875-5.87890625t0.46875-4.74609375q0-1.0546875-0.3125-2.8125t-0.95703125-3.4765625t-1.7578125-2.96875t-2.63671875-1.25q-1.8359375,0-2.9296875,1.89453125t-1.71875,4.4140625t-0.83984375,5.1953125t-0.21484375,4.19921875q0,0.9765625,0.33203125,1.93359375t0.76171875,1.9140625t0.76171875,1.953125t0.33203125,1.97265625q0,0.46875-0.41015625,0.78125t-0.95703125,0.5078125t-1.15234375,0.25390625t-0.91796875,0.05859375q-2.2265625,0-3.0859375-1.0546875t-1.484375-2.96875q-1.3671875-4.3359375-1.89453125-8.80859375t-0.52734375-8.96484375z M151.484765625,127.5390625q0-8.4765625,0.76171875-16.97265625t3.18359375-16.73828125q0.703125-2.4609375,1.8359375-4.86328125t2.7734375-4.27734375t3.90625-3.046875t5.390625-1.171875l0.8203125,0.078125q3.359375,0.46875,4.9609375,2.71484375t1.6015625,5.60546875q0,0.8984375-0.21484375,2.24609375t-0.68359375,2.59765625t-1.26953125,2.12890625t-2.01171875,0.87890625q-0.546875-0.078125-0.99609375-0.1953125t-0.83984375-0.5078125q0.625-1.3671875,1.11328125-2.8515625t0.48828125-3.3984375q0-0.703125-0.1171875-1.796875t-0.44921875-2.16796875t-0.87890625-1.875t-1.5234375-0.80078125q-2.4609375,0-4.140625,2.75390625t-2.8125,7.03125t-1.6796875,9.453125t-0.83984375,10t-0.33203125,8.7109375t-0.0390625,5.48828125q0,1.875-0.0390625,4.140625l0,0.5078125q0.0390625,1.9921875,0.2734375,3.7890625q0.3125,2.03125,1.2109375,3.515625t2.8125,1.71875q0.5859375,0.078125,1.1328125,0.078125q2.265625,0,4.1015625-1.2890625q2.265625-1.6015625,4.0234375-4.16015625t3.125-5.625t2.51953125-5.80078125t2.24609375-4.53125t2.265625-1.796875q0.390625,0,1.171875,0.15625t0.78125,0.7421875q0,0.15625-0.078125,0.4296875t-0.1953125,0.4296875q-1.0546875,4.140625-2.67578125,8.59375t-4.140625,8.10546875t-6.171875,5.95703125t-8.76953125,2.3046875q-3.671875,0-5.95703125-1.38671875t-3.515625-3.7109375t-1.6796875-5.25390625t-0.44921875-5.9375z M192.95625,93.02734375q-0.078125-1.03515625,0.17578125-1.953125t0.95703125-1.5234375t2.3828125-0.60546875q0.390625,0,0.95703125,0.078125t1.1328125,0.25390625t0.91796875,0.48828125t0.3515625,0.859375q0,1.4453125,0.09765625,3.80859375t0.25390625,4.921875t0.29296875,5t0.25390625,3.96484375q3.046875-0.15625,6.1328125-0.15625t6.09375-0.15625l5.390625-0.15625l0-3.8671875q0-6.484375-0.25390625-12.98828125t-0.87890625-12.98828125q0-0.46875,0.390625-0.76171875t0.91796875-0.44921875t1.09375-0.1953125t0.87890625-0.0390625q0.8984375,0,1.93359375,0.2734375t1.19140625,1.171875l0.234375,1.6796875q0.9765625,7.03125,1.328125,13.90625t0.5078125,13.75q0.46875,0.078125,0.99609375,0.25390625t1.07421875,0.33203125q0.390625,0.15625,1.11328125,0.46875t0.72265625,0.9765625q0,0.625-0.546875,0.9765625t-1.23046875,0.52734375t-1.328125,0.21484375t-0.80078125,0.0390625q0.078125,2.890625,0.078125,5.76171875l0,5.76171875l0,12.6171875l0,7.03125q0,0.46875-0.44921875,0.83984375t-1.07421875,0.60546875t-1.30859375,0.3125t-1.23046875,0.078125t-1.2890625-0.078125t-1.328125-0.3125t-1.03515625-0.5859375t-0.44921875-0.859375l0-1.6796875q0.15625-7.421875,0.3515625-14.70703125t0.390625-14.62890625q-4.2578125,0.15625-8.65234375,0.1953125t-8.73046875,0.1953125q0.46875,5.5078125,1.07421875,10.99609375t1.26953125,10.99609375q0,0.46875-0.44921875,0.83984375t-1.0546875,0.60546875t-1.2890625,0.3125t-1.23046875,0.078125q-1.1328125,0-2.48046875-0.390625t-1.50390625-1.4453125q-0.46875-4.140625-0.87890625-9.140625t-0.72265625-10.21484375t-0.48828125-10.21484375t-0.17578125-9.0625q0-0.9765625-0.078125-2.01171875z M237.357421875,139.1015625q0-0.234375,0.15625-1.66015625t0.41015625-3.4765625t0.56640625-4.4140625t0.546875-4.47265625t0.41015625-3.7109375t0.17578125-2.1484375q-0.3125-0.15625-0.76171875-0.44921875t-0.44921875-0.68359375q0-0.546875,0.52734375-0.87890625t0.91796875-0.48828125q0.15625-1.9921875,0.390625-5.546875t0.72265625-7.67578125t1.3671875-8.359375t2.32421875-7.6953125t3.4765625-5.64453125t5-2.1875t4.921875,1.875t3.18359375,4.8828125t1.875,6.6796875t0.9765625,7.3046875t0.41015625,6.796875t0.15625,5.078125q0.078125,1.2109375,0.5859375,1.62109375t1.11328125,0.56640625t1.09375,0.3515625t0.48828125,0.9765625q0,0.8984375-1.09375,1.25t-1.71875,0.4296875q0.390625,4.8828125,1.07421875,9.609375t1.81640625,9.53125q0.15625,0.8984375,0.4296875,1.81640625t0.2734375,1.77734375q0,0.625-0.4296875,1.03515625t-1.11328125,0.64453125t-1.3671875,0.3125t-1.15234375,0.078125q-1.7578125,0-2.96875-0.6640625t-1.6015625-2.5390625q-1.0546875-5.0390625-2.0703125-10.5859375q-0.859375-4.8046875-0.859375-9.3359375q0-0.703125,0.0390625-1.40625q-3.28125,0-6.6015625,0.15625t-6.3671875,1.171875q-0.078125,1.0546875-0.390625,3.984375t-0.703125,6.2890625t-0.80078125,6.42578125t-0.48828125,4.35546875q-0.078125,0.546875-0.80078125,1.03515625t-1.5625,0.52734375t-1.484375-0.52734375t-0.64453125-2.01171875z M244.662109375,115.4296875q3.046875-0.703125,6.11328125-0.8203125t6.19140625-0.2734375q-0.15625-0.9765625-0.078125-2.01171875t0.078125-2.08984375q0-2.3046875-0.1171875-5.3515625t-0.3515625-6.171875t-0.60546875-6.15234375t-0.83984375-5.390625t-0.99609375-3.76953125t-1.15234375-1.40625q-1.2109375,0.078125-2.28515625,2.08984375t-1.953125,5.1171875t-1.6015625,6.953125t-1.2109375,7.51953125t-0.80078125,6.8359375t-0.390625,4.921875z M274.33671875,84.4140625q0-0.546875,0.76171875-0.83984375t0.99609375-0.29296875l1.4453125-0.234375q1.4453125-0.234375,2.9296875-0.41015625t2.890625-0.33203125q4.9609375-0.625,9.921875-1.23046875t10-0.60546875q0.390625,0,1.07421875,0.0390625t1.3671875,0.21484375t1.171875,0.48828125t0.48828125,0.859375q0,0.390625-0.37109375,0.68359375t-0.87890625,0.44921875t-1.03515625,0.1953125t-0.83984375,0.0390625l-0.68359375,0t-0.68359375-0.15625q-2.0703125,0-4.08203125,0.1953125t-4.08203125,0.3515625q0.546875,0.625,0.5859375,1.7578125t0.078125,1.953125q0,13.828125,0.1953125,27.5t0.3515625,27.6171875l0,0.078125q-1.2890625,1.1328125-2.20703125,1.4453125t-1.85546875,0.3125q-0.8984375,0-1.81640625-0.33203125t-2.20703125-1.42578125l0-0.078125l0.3125-30.6640625q0-3.046875-0.078125-6.71875t-0.078125-7.44140625t0.1171875-7.28515625t0.625-6.1328125q-2.3046875,0.234375-4.8828125,0.703125q-2.2265625,0.390625-4.2578125,0.390625l-0.703125,0q-0.15625,0-0.91796875,0.0390625t-1.5625-0.0390625t-1.4453125-0.3125t-0.64453125-0.78125z"/><path fill="#" d=""/></svg>
