<?xml version="1.0"?>
<svg version="1.1" xmlns="http://www.w3.org/2000/svg" width="170px" height="65px" style=""><path fill="#" d="M2.5380859375,53.3984375q0.146484375-3.955078125,0.25634765625-8.10546875t0.20751953125-8.19091796875t0.146484375-7.84912109375t0.048828125-7.1044921875q0.048828125-0.6591796875,1.1474609375-1.0498046875t2.62451171875-0.57373046875t3.22265625-0.23193359375t3.01513671875-0.048828125q0.29296875,0,1.220703125-0.0244140625l0.4638671875,0q0.7080078125,0,1.4892578125,0.048828125q1.025390625,0.0732421875,1.79443359375,0.3173828125t0.76904296875,0.7080078125q0,0.341796875-0.2685546875,0.54931640625t-0.62255859375,0.30517578125t-0.732421875,0.1220703125t-0.52490234375,0.0244140625q-2.294921875,0-4.541015625-0.0732421875q-0.6103515625-0.0244140625-1.2451171875-0.0244140625q-1.66015625,0-3.369140625,0.146484375q0.09765625,0.29296875,0.15869140625,1.77001953125t0.06103515625,3.33251953125t-0.0244140625,3.62548828125t0,2.72216796875l0,6.34765625q0.7568359375-0.048828125,1.4892578125-0.048828125l1.46484375,0l0.9765625-0.048828125q0.48828125-0.0244140625,1.025390625-0.0244140625q0.5615234375,0,1.1474609375,0.0244140625q1.171875,0.048828125,2.13623046875,0.28076171875t0.96435546875,0.81787109375q0,0.439453125-0.3662109375,0.64697265625t-0.81787109375,0.30517578125t-0.8544921875,0.09765625l-0.45166015625,0q-1.3916015625,0-2.89306640625-0.09765625t-2.79541015625-0.09765625q-0.244140625,0.09765625-0.52490234375,0.0732421875t-0.50048828125-0.0244140625q0,3.662109375-0.0732421875,7.28759765625t-0.1708984375,7.21435546875q0,0.7080078125-0.89111328125,0.927734375t-1.69677734375,0.2197265625q-0.9033203125,0-1.42822265625-0.2197265625t-0.74462890625-0.72021484375t-0.2685546875-1.33056640625q-0.0244140625-0.4638671875-0.048828125-1.025390625q0-0.4638671875,0.0244140625-1.0009765625z M22.451904296875,48.3935546875q0-1.66015625,0.45166015625-3.1982421875t1.35498046875-2.74658203125t2.25830078125-1.9287109375t3.13720703125-0.72021484375q1.0986328125,0,2.42919921875,0.32958984375t2.50244140625,0.9765625t1.953125,1.64794921875t0.78125,2.294921875q0,0.6103515625-0.20751953125,0.927734375t-0.84228515625,0.3173828125l-0.2685546875-0.048828125q0.7080078125,1.904296875,1.220703125,3.90625t1.0009765625,4.00390625q0.1953125,0.390625,0.29296875,0.69580078125t0.09765625,0.59814453125q0,0.390625-0.2197265625,0.64697265625t-0.57373046875,0.37841796875t-0.732421875,0.1708984375t-0.67138671875,0.048828125q-1.0498046875,0-1.57470703125-0.3662109375t-0.7568359375-1.0009765625t-0.28076171875-1.42822265625t-0.1953125-1.59912109375q-0.29296875,0.9521484375-0.76904296875,1.85546875t-1.123046875,1.62353515625t-1.52587890625,1.1474609375t-1.9775390625,0.42724609375q-1.611328125,0-2.7099609375-0.927734375t-1.77001953125-2.28271484375t-0.9765625-2.89306640625t-0.30517578125-2.8564453125z M25.918701171875,48.0517578125q0,0.9033203125,0.1220703125,1.904296875t0.40283203125,1.9775390625t0.72021484375,1.84326171875t1.0986328125,1.52587890625q1.1962890625-1.2939453125,1.77001953125-3.1494140625t1.025390625-3.57666015625t1.025390625-2.9541015625t1.77001953125-1.23291015625q0.7568359375,0,1.26953125,0.2685546875q-0.244140625-0.6103515625-0.8056640625-1.18408203125t-1.25732421875-1.0498046875t-1.4404296875-0.78125t-1.40380859375-0.30517578125q-0.1953125,0-0.45166015625,0.06103515625t-0.40283203125,0.01220703125q-1.0009765625,0.29296875-1.64794921875,1.01318359375t-1.0498046875,1.69677734375t-0.57373046875,2.001953125t-0.1708984375,1.9287109375z M43.61083984375,41.2890625q0-1.708984375,0.15869140625-4.443359375t0.37841796875-5.6396484375t0.54931640625-5.50537109375t0.72021484375-3.99169921875q0.146484375-0.6103515625,0.69580078125-0.732421875t1.11083984375-0.1220703125q0.7568359375,0,1.30615234375,0.2685546875t0.54931640625,1.171875q0,4.443359375-0.54931640625,8.89892578125t-0.59814453125,8.89892578125q0.7568359375-1.1474609375,1.953125-1.72119140625t2.5390625-0.57373046875q1.85546875,0,3.1982421875,0.7568359375t2.1728515625,1.953125t1.23291015625,2.77099609375t0.40283203125,3.21044921875q0,0.9033203125-0.18310546875,2.25830078125t-0.54931640625,2.8564453125t-0.927734375,2.978515625t-1.33056640625,2.64892578125t-1.77001953125,1.89208984375t-2.197265625,0.72021484375q-0.244140625,0-0.64697265625-0.0732421875t-0.8056640625-0.2197265625t-0.67138671875-0.37841796875t-0.2685546875-0.57373046875q0-0.390625,0.47607421875-0.54931640625t0.76904296875-0.15869140625q1.0986328125-0.48828125,1.953125-2.03857421875t1.42822265625-3.40576171875t0.86669921875-3.67431640625t0.29296875-2.96630859375q0-0.6591796875-0.1953125-1.7578125t-0.59814453125-2.1728515625t-1.0986328125-1.85546875t-1.64794921875-0.78125q-1.1474609375,0-1.8310546875,1.18408203125t-1.07421875,2.7587890625t-0.52490234375,3.2470703125t-0.13427734375,2.62451171875q0,0.6103515625,0.20751953125,1.20849609375t0.47607421875,1.1962890625t0.47607421875,1.220703125t0.20751953125,1.23291015625q0,0.29296875-0.25634765625,0.48828125t-0.59814453125,0.3173828125t-0.72021484375,0.15869140625t-0.57373046875,0.03662109375q-1.3916015625,0-1.9287109375-0.6591796875t-0.927734375-1.85546875q-0.8544921875-2.7099609375-1.18408203125-5.50537109375t-0.32958984375-5.60302734375z M64.427978515625,49.7119140625q0-5.2978515625,0.47607421875-10.60791015625t1.98974609375-10.46142578125q0.439453125-1.5380859375,1.1474609375-3.03955078125t1.7333984375-2.67333984375t2.44140625-1.904296875t3.369140625-0.732421875l0.5126953125,0.048828125q2.099609375,0.29296875,3.1005859375,1.69677734375t1.0009765625,3.50341796875q0,0.5615234375-0.13427734375,1.40380859375t-0.42724609375,1.62353515625t-0.79345703125,1.33056640625t-1.25732421875,0.54931640625q-0.341796875-0.048828125-0.62255859375-0.1220703125t-0.52490234375-0.3173828125q0.390625-0.8544921875,0.69580078125-1.7822265625t0.30517578125-2.1240234375q0-0.439453125-0.0732421875-1.123046875t-0.28076171875-1.35498046875t-0.54931640625-1.171875t-0.9521484375-0.50048828125q-1.5380859375,0-2.587890625,1.72119140625t-1.7578125,4.39453125t-1.0498046875,5.908203125t-0.52490234375,6.25t-0.20751953125,5.4443359375t-0.0244140625,3.43017578125q0,1.171875-0.0244140625,2.587890625l0,0.3173828125q0.0244140625,1.2451171875,0.1708984375,2.3681640625q0.1953125,1.26953125,0.7568359375,2.197265625t1.7578125,1.07421875q0.3662109375,0.048828125,0.7080078125,0.048828125q1.416015625,0,2.5634765625-0.8056640625q1.416015625-1.0009765625,2.5146484375-2.60009765625t1.953125-3.515625t1.57470703125-3.62548828125t1.40380859375-2.83203125t1.416015625-1.123046875q0.244140625,0,0.732421875,0.09765625t0.48828125,0.4638671875q0,0.09765625-0.048828125,0.2685546875t-0.1220703125,0.2685546875q-0.6591796875,2.587890625-1.67236328125,5.37109375t-2.587890625,5.06591796875t-3.857421875,3.72314453125t-5.48095703125,1.4404296875q-2.294921875,0-3.72314453125-0.86669921875t-2.197265625-2.3193359375t-1.0498046875-3.28369140625t-0.28076171875-3.7109375z M90.34765625,28.14208984375q-0.048828125-0.64697265625,0.10986328125-1.220703125t0.59814453125-0.9521484375t1.4892578125-0.37841796875q0.244140625,0,0.59814453125,0.048828125t0.7080078125,0.15869140625t0.57373046875,0.30517578125t0.2197265625,0.537109375q0,0.9033203125,0.06103515625,2.38037109375t0.15869140625,3.076171875t0.18310546875,3.125t0.15869140625,2.47802734375q1.904296875-0.09765625,3.8330078125-0.09765625t3.80859375-0.09765625l3.369140625-0.09765625l0-2.4169921875q0-4.052734375-0.15869140625-8.11767578125t-0.54931640625-8.11767578125q0-0.29296875,0.244140625-0.47607421875t0.57373046875-0.28076171875t0.68359375-0.1220703125t0.54931640625-0.0244140625q0.5615234375,0,1.20849609375,0.1708984375t0.74462890625,0.732421875l0.146484375,1.0498046875q0.6103515625,4.39453125,0.830078125,8.69140625t0.3173828125,8.59375q0.29296875,0.048828125,0.62255859375,0.15869140625t0.67138671875,0.20751953125q0.244140625,0.09765625,0.69580078125,0.29296875t0.45166015625,0.6103515625q0,0.390625-0.341796875,0.6103515625t-0.76904296875,0.32958984375t-0.830078125,0.13427734375t-0.50048828125,0.0244140625q0.048828125,1.806640625,0.048828125,3.60107421875l0,3.60107421875l0,7.8857421875l0,4.39453125q0,0.29296875-0.28076171875,0.52490234375t-0.67138671875,0.37841796875t-0.81787109375,0.1953125t-0.76904296875,0.048828125t-0.8056640625-0.048828125t-0.830078125-0.1953125t-0.64697265625-0.3662109375t-0.28076171875-0.537109375l0-1.0498046875q0.09765625-4.638671875,0.2197265625-9.19189453125t0.244140625-9.14306640625q-2.6611328125,0.09765625-5.40771484375,0.1220703125t-5.45654296875,0.1220703125q0.29296875,3.4423828125,0.67138671875,6.87255859375t0.79345703125,6.87255859375q0,0.29296875-0.28076171875,0.52490234375t-0.6591796875,0.37841796875t-0.8056640625,0.1953125t-0.76904296875,0.048828125q-0.7080078125,0-1.55029296875-0.244140625t-0.93994140625-0.9033203125q-0.29296875-2.587890625-0.54931640625-5.712890625t-0.45166015625-6.38427734375t-0.30517578125-6.38427734375t-0.10986328125-5.6640625q0-0.6103515625-0.048828125-1.25732421875z M118.09838867188,56.9384765625q0-0.146484375,0.09765625-1.03759765625t0.25634765625-2.1728515625t0.35400390625-2.7587890625t0.341796875-2.79541015625t0.25634765625-2.3193359375t0.10986328125-1.3427734375q-0.1953125-0.09765625-0.47607421875-0.28076171875t-0.28076171875-0.42724609375q0-0.341796875,0.32958984375-0.54931640625t0.57373046875-0.30517578125q0.09765625-1.2451171875,0.244140625-3.466796875t0.45166015625-4.79736328125t0.8544921875-5.224609375t1.45263671875-4.8095703125t2.1728515625-3.52783203125t3.125-1.3671875t3.076171875,1.171875t1.98974609375,3.0517578125t1.171875,4.1748046875t0.6103515625,4.5654296875t0.25634765625,4.248046875t0.09765625,3.173828125q0.048828125,0.7568359375,0.3662109375,1.01318359375t0.69580078125,0.35400390625t0.68359375,0.2197265625t0.30517578125,0.6103515625q0,0.5615234375-0.68359375,0.78125t-1.07421875,0.2685546875q0.244140625,3.0517578125,0.67138671875,6.005859375t1.13525390625,5.95703125q0.09765625,0.5615234375,0.2685546875,1.13525390625t0.1708984375,1.11083984375q0,0.390625-0.2685546875,0.64697265625t-0.69580078125,0.40283203125t-0.8544921875,0.1953125t-0.72021484375,0.048828125q-1.0986328125,0-1.85546875-0.4150390625t-1.0009765625-1.5869140625q-0.6591796875-3.1494140625-1.2939453125-6.6162109375q-0.537109375-3.0029296875-0.537109375-5.8349609375q0-0.439453125,0.0244140625-0.87890625q-2.05078125,0-4.1259765625,0.09765625t-3.9794921875,0.732421875q-0.048828125,0.6591796875-0.244140625,2.490234375t-0.439453125,3.9306640625t-0.50048828125,4.01611328125t-0.30517578125,2.72216796875q-0.048828125,0.341796875-0.50048828125,0.64697265625t-0.9765625,0.32958984375t-0.927734375-0.32958984375t-0.40283203125-1.25732421875z M122.66381835938,42.1435546875q1.904296875-0.439453125,3.82080078125-0.5126953125t3.86962890625-0.1708984375q-0.09765625-0.6103515625-0.048828125-1.25732421875t0.048828125-1.30615234375q0-1.4404296875-0.0732421875-3.3447265625t-0.2197265625-3.857421875t-0.37841796875-3.84521484375t-0.52490234375-3.369140625t-0.62255859375-2.35595703125t-0.72021484375-0.87890625q-0.7568359375,0.048828125-1.42822265625,1.30615234375t-1.220703125,3.1982421875t-1.0009765625,4.345703125t-0.7568359375,4.69970703125t-0.50048828125,4.2724609375t-0.244140625,3.076171875z M141.21044921875,22.7587890625q0-0.341796875,0.47607421875-0.52490234375t0.62255859375-0.18310546875l0.9033203125-0.146484375q0.9033203125-0.146484375,1.8310546875-0.25634765625t1.806640625-0.20751953125q3.1005859375-0.390625,6.201171875-0.76904296875t6.25-0.37841796875q0.244140625,0,0.67138671875,0.0244140625t0.8544921875,0.13427734375t0.732421875,0.30517578125t0.30517578125,0.537109375q0,0.244140625-0.23193359375,0.42724609375t-0.54931640625,0.28076171875t-0.64697265625,0.1220703125t-0.52490234375,0.0244140625l-0.42724609375,0t-0.42724609375-0.09765625q-1.2939453125,0-2.55126953125,0.1220703125t-2.55126953125,0.2197265625q0.341796875,0.390625,0.3662109375,1.0986328125t0.048828125,1.220703125q0,8.642578125,0.1220703125,17.1875t0.2197265625,17.2607421875l0,0.048828125q-0.8056640625,0.7080078125-1.37939453125,0.9033203125t-1.15966796875,0.1953125q-0.5615234375,0-1.13525390625-0.20751953125t-1.37939453125-0.89111328125l0-0.048828125l0.1953125-19.1650390625q0-1.904296875-0.048828125-4.19921875t-0.048828125-4.65087890625t0.0732421875-4.55322265625t0.390625-3.8330078125q-1.4404296875,0.146484375-3.0517578125,0.439453125q-1.3916015625,0.244140625-2.6611328125,0.244140625l-0.439453125,0q-0.09765625,0-0.57373046875,0.0244140625t-0.9765625-0.0244140625t-0.9033203125-0.1953125t-0.40283203125-0.48828125z"/><path fill="#" d=""/></svg>
